<svg width="18" height="17" viewBox="0 0 18 17" xmlns="http://www.w3.org/2000/svg">
    <g fill="#FF5858" fill-rule="nonzero">
        <path d="M8.99 11.55a.934.934 0 0 0-.924.924c0 .503.421.924.924.924.484 0 .924-.421.902-.901a.902.902 0 0 0-.902-.947z" />
        <path d="M17.543 14.825a3.155 3.155 0 0 0 .007-3.193L11.762 1.608A3.145 3.145 0 0 0 8.994 0C7.833 0 6.798.602 6.225 1.604L.43 11.64a3.18 3.18 0 0 0 .01 3.212 3.163 3.163 0 0 0 2.762 1.586h11.561a3.183 3.183 0 0 0 2.78-1.612zm-1.257-.724c-.322.554-.89.883-1.527.883H3.2a1.723 1.723 0 0 1-1.509-.865 1.749 1.749 0 0 1-.004-1.763L7.482 2.325c.314-.55.876-.876 1.512-.876.632 0 1.197.329 1.511.88l5.792 10.03c.31.54.307 1.19-.011 1.742z" />
        <path d="M8.76 5.064c-.44.125-.713.525-.713 1.009.023.292.041.587.063.88l.189 3.315c.022.377.314.65.69.65a.691.691 0 0 0 .692-.672c0-.23 0-.44.022-.673.04-.713.085-1.427.126-2.14.022-.462.063-.924.085-1.386 0-.167-.022-.314-.085-.462a.926.926 0 0 0-1.068-.521z" />
    </g>
</svg>